<?xml version="1.0" encoding="UTF-8"?> <svg xmlns="http://www.w3.org/2000/svg" id="Capa_1" data-name="Capa 1" width="95.04" height="95.04" viewBox="0 0 95.04 95.04"><defs><style> .cls-1 { fill: #66bc8d; } .cls-2 { fill: #fff; } </style></defs><circle class="cls-1" cx="47.52" cy="47.52" r="47.52"></circle><g><path class="cls-2" d="M45.64,69.66a16.21,16.21,0,0,0-8-13.16L30.1,48.13A4,4,0,0,0,26,46.88V32.56a4.37,4.37,0,0,0-8.73,0V53.21A9.94,9.94,0,0,0,18.54,58L28.21,75.4v4.08a1.09,1.09,0,0,0,1.09,1.09H44.58a1.09,1.09,0,0,0,1.09-1.09V69.66Zm-2.15,8.73H30.4V75.11a1.13,1.13,0,0,0-.14-.53L20.45,56.92a7.62,7.62,0,0,1-1-3.71V32.56a2.18,2.18,0,1,1,4.36,0V48.22a4.15,4.15,0,0,0,.07,5.49l8.94,9.84,1.62-1.47-8.94-9.83a2,2,0,0,1,2.87-2.74l.07.08,7.65,8.5a1.59,1.59,0,0,0,.33.25,14,14,0,0,1,7,12.11Z" transform="translate(-2.38 -2.2)"></path><path class="cls-2" d="M78.4,28.2A4.36,4.36,0,0,0,74,32.56V46.88A4,4,0,0,0,73,46.75a4.07,4.07,0,0,0-3,1.38L62.43,56.5a16.18,16.18,0,0,0-8,13.16h0v9.82a1.09,1.09,0,0,0,1.09,1.09H70.76a1.09,1.09,0,0,0,1.09-1.09V75.39l9.56-17.31a9.8,9.8,0,0,0,1.35-5V32.56A4.36,4.36,0,0,0,78.4,28.2Zm2.18,24.9A7.65,7.65,0,0,1,79.51,57L69.8,74.59a1.18,1.18,0,0,0-.13.52v3.28H56.58V70.45a14,14,0,0,1,7.08-12.14,1,1,0,0,0,.28-.22l7.65-8.51a2,2,0,1,1,2.94,2.67l-8.94,9.83,1.62,1.47,8.93-9.83a4.16,4.16,0,0,0,.08-5.5V32.56a2.18,2.18,0,1,1,4.36,0V53.1Z" transform="translate(-2.38 -2.2)"></path><path class="cls-2" d="M63.13,42.38H60.94a12,12,0,0,0-9.82,5.13V40.2h1.1a12,12,0,0,0,12-12,1.09,1.09,0,0,0-1.09-1.09H60.94a12,12,0,0,0-9.82,5.13V24.93h1.1a8.74,8.74,0,0,0,8.72-8.73,1.09,1.09,0,0,0-1.09-1.09H57.67A8.73,8.73,0,0,0,50,19.62a8.72,8.72,0,0,0-7.63-4.51H40.21a1.09,1.09,0,0,0-1.09,1.09,8.74,8.74,0,0,0,8.73,8.73h1.09v7.31a12,12,0,0,0-9.82-5.13H36.94a1.09,1.09,0,0,0-1.09,1.09,12,12,0,0,0,12,12h1.09v7.31a12,12,0,0,0-9.82-5.13H36.94a1.09,1.09,0,0,0-1.09,1.09,12,12,0,0,0,12,12h1.09V64.2h2.18V55.48h1.1a12,12,0,0,0,12-12A1.09,1.09,0,0,0,63.13,42.38ZM60.94,29.29h1A9.83,9.83,0,0,1,52.22,38h-1A9.85,9.85,0,0,1,60.94,29.29Zm-3.27-12h1a6.56,6.56,0,0,1-6.45,5.46h-1A6.55,6.55,0,0,1,57.67,17.29Zm-9.82,5.46a6.56,6.56,0,0,1-6.45-5.46h1a6.55,6.55,0,0,1,6.45,5.46Zm0,15.27a9.83,9.83,0,0,1-9.76-8.73h1A9.83,9.83,0,0,1,48.88,38Zm0,15.27a9.83,9.83,0,0,1-9.76-8.72h1a9.83,9.83,0,0,1,9.76,8.72Zm4.37,0h-1a9.84,9.84,0,0,1,9.76-8.72h1A9.82,9.82,0,0,1,52.22,53.29Z" transform="translate(-2.38 -2.2)"></path></g></svg> 