<?xml version="1.0" encoding="UTF-8"?> <svg xmlns="http://www.w3.org/2000/svg" id="Capa_1" data-name="Capa 1" width="95.04" height="95.04" viewBox="0 0 95.04 95.04"><defs><style> .cls-1 { fill: #66bc8d; } .cls-2 { fill: #fff; } </style></defs><circle class="cls-1" cx="47.52" cy="47.52" r="47.52"></circle><g><path class="cls-2" d="M42.43,73.89a15.9,15.9,0,0,1-8.07-24.61,1.32,1.32,0,0,0,.12-.2,1.36,1.36,0,0,0-2.32-1.39,18.63,18.63,0,0,0,.08,22.15,18.8,18.8,0,0,0,9.38,6.64,1.44,1.44,0,0,0,.4.06,1.37,1.37,0,0,0,1.3-1,1.35,1.35,0,0,0-.89-1.69Z" transform="translate(-2.38 -2.2)"></path><path class="cls-2" d="M77.19,46a12,12,0,0,0-2.33-7.12L66.28,26.12a1.39,1.39,0,0,0-1.13-.6,1.36,1.36,0,0,0-1.12.6l-3.62,5.37L49.23,14.89a1.36,1.36,0,0,0-1.13-.6,1.33,1.33,0,0,0-1.12.6l-19.2,28.5a25,25,0,0,0-4.9,14.93,25.22,25.22,0,1,0,50.44,0A26,26,0,0,0,73.1,55,12,12,0,0,0,77.19,46Zm-12-16.67,7.46,11.07,0,.07A9.23,9.23,0,0,1,74.47,46a9.32,9.32,0,1,1-16.83-5.53l0-.07,3.84-5.7,0,0Zm5.46,29A22.51,22.51,0,1,1,30,45L30,44.9,48.1,18.07,58.77,33.92l-3.33,4.94A12,12,0,0,0,70.55,56.73q.06.8.06,1.59Z" transform="translate(-2.38 -2.2)"></path><path class="cls-2" d="M60.37,45.65a4.55,4.55,0,0,1,.4-1.89,1.36,1.36,0,0,0-2.48-1.1,7.38,7.38,0,0,0,2.64,9.11,1.36,1.36,0,0,0,1.51-2.26,4.62,4.62,0,0,1-2.07-3.86Z" transform="translate(-2.38 -2.2)"></path><path class="cls-2" d="M47.46,75.76a1.36,1.36,0,1,0-1.52,1.85A1.37,1.37,0,0,0,47.46,75.76Z" transform="translate(-2.38 -2.2)"></path><path class="cls-2" d="M64.44,53a1.35,1.35,0,1,0,0-2.25A1.35,1.35,0,0,0,64.44,53Z" transform="translate(-2.38 -2.2)"></path></g></svg> 