<?xml version="1.0" encoding="UTF-8"?> <svg xmlns="http://www.w3.org/2000/svg" id="Capa_1" data-name="Capa 1" width="95.04" height="95.04" viewBox="0 0 95.04 95.04"><defs><style> .cls-1 { fill: #66bc8d; } .cls-2 { fill: #fff; } </style></defs><circle class="cls-1" cx="47.52" cy="47.52" r="47.52"></circle><path class="cls-2" d="M34.88,20.46A1.19,1.19,0,0,0,37,19.27l-2.86-5A1.19,1.19,0,1,0,32,15.5ZM21.81,43.07H16.09a1.2,1.2,0,1,0,0,2.39h5.72a1.2,1.2,0,1,0,0-2.39ZM50,17.28a1.2,1.2,0,0,0,1.2-1.2V10.36a1.2,1.2,0,0,0-2.4,0v5.72A1.2,1.2,0,0,0,50,17.28ZM63.49,20.9a1.2,1.2,0,0,0,1.63-.44l2.86-5a1.19,1.19,0,1,0-2.07-1.19l-2.86,5A1.2,1.2,0,0,0,63.49,20.9Zm20.4,22.17H78.17a1.2,1.2,0,1,0,0,2.39h5.72a1.2,1.2,0,1,0,0-2.39ZM80.4,26.72a1.2,1.2,0,0,0-1.64-.44l-5,2.86A1.2,1.2,0,1,0,75,31.22l5-2.86a1.23,1.23,0,0,0,.44-1.64Zm-30.4-5h0a22.44,22.44,0,0,0-8.4,1.6,1.2,1.2,0,0,0,.89,2.22A20,20,0,0,1,50,24.1h0A20.18,20.18,0,0,1,61.72,60.73,14,14,0,0,0,55.86,70.9H51.21V60.22a2.47,2.47,0,0,0,.41-.33L58.48,53a12.41,12.41,0,0,0,0-17.56l-6.86-6.86a2.25,2.25,0,0,0-3.2,0l-6.86,6.86a12.41,12.41,0,0,0,0,17.56l6.86,6.86a3.12,3.12,0,0,0,.41.33V70.9H44.18a13.76,13.76,0,0,0-5.77-10.1,20.19,20.19,0,0,1,.24-33.22,1.19,1.19,0,1,0-1.35-2A22.58,22.58,0,0,0,37,62.76a11.32,11.32,0,0,1,4.77,8.39,3.26,3.26,0,0,0-2,3v2a3.29,3.29,0,0,0,.73,2.06,3.25,3.25,0,0,0-.73,2.06v2.06A3.26,3.26,0,0,0,43,85.64h1.18v2.62a2.58,2.58,0,0,0,2.57,2.57h6.48a2.57,2.57,0,0,0,2.56-2.57V85.63H57a3.25,3.25,0,0,0,3.25-3.26V80.31a3.28,3.28,0,0,0-.73-2,3.28,3.28,0,0,0,.73-2.06V74.14a3.24,3.24,0,0,0-2-3,11.53,11.53,0,0,1,4.87-8.47A22.56,22.56,0,0,0,50,21.72ZM43.22,51.35a10,10,0,0,1,0-14.17L50,30.4l6.78,6.78a10,10,0,0,1,0,14.17L51.2,56.94V52L54,49.24a1.21,1.21,0,0,0,0-1.69,1.19,1.19,0,0,0-1.69,0L51.2,48.62V47.2L54,44.44a1.22,1.22,0,0,0,0-1.7,1.21,1.21,0,0,0-1.69,0L51.2,43.82V41.07a1.2,1.2,0,1,0-2.4,0v4.35l-1.07-1.07a1.21,1.21,0,0,0-1.69,0A1.19,1.19,0,0,0,46,46L48.8,48.8v1.43l-1.07-1.07A1.2,1.2,0,1,0,46,50.85l2.76,2.76V57Zm10.19,36.9a.18.18,0,0,1-.17.17H46.76a.18.18,0,0,1-.17-.17V85.63h6.83v2.62Zm4.44-12a.85.85,0,0,1-.86.86H54.78a1.2,1.2,0,0,0,0,2.4H57a.85.85,0,0,1,.86.86v2.06a.85.85,0,0,1-.86.86H43a.85.85,0,0,1-.85-.86V80.33a.85.85,0,0,1,.85-.86h7a1.2,1.2,0,0,0,0-2.4H43a.85.85,0,0,1-.85-.86v-2A.85.85,0,0,1,43,73.3H57a.85.85,0,0,1,.86.86v2ZM26.2,29.14l-5-2.86A1.2,1.2,0,0,0,20,28.36l5,2.86a1.2,1.2,0,0,0,1.63-.44A1.21,1.21,0,0,0,26.2,29.14Z" transform="translate(-2.38 -2.2)"></path></svg> 