<?xml version="1.0" encoding="UTF-8"?> <svg xmlns="http://www.w3.org/2000/svg" id="Capa_1" data-name="Capa 1" width="95.04" height="95.04" viewBox="0 0 95.04 95.04"><defs><style> .cls-1 { fill: #66bc8d; } .cls-2 { fill: #fff; } </style></defs><circle class="cls-1" cx="47.52" cy="47.52" r="47.52"></circle><path class="cls-2" d="M24,52.21A26.13,26.13,0,0,1,46.14,24a26.47,26.47,0,0,1,16,2.64.47.47,0,0,1,.11.79l-2.36,2.36a2.56,2.56,0,0,0,1.8,4.35h0l12.28,0a2.56,2.56,0,0,0,2.55-2.56V19.27a2.57,2.57,0,0,0-4.36-1.79l-2.9,2.9a.51.51,0,0,1-.62.09A34.73,34.73,0,0,0,44,15.64a1,1,0,1,0,.36,2,32.74,32.74,0,0,1,23.17,4.54,2.56,2.56,0,0,0,3.16-.36l2.9-2.91a.49.49,0,0,1,.86.35V31.54a.51.51,0,0,1-.51.51l-12.28,0h0a.49.49,0,0,1-.35-.86l2.35-2.35a2.57,2.57,0,0,0-.61-4.06A28.54,28.54,0,0,0,45.83,22,28.2,28.2,0,0,0,22,52.39a2.24,2.24,0,0,1-.65,1.81,2.24,2.24,0,0,1-3.82-1.35,32.66,32.66,0,0,1,22.33-34,1,1,0,0,0,.65-1.29,1,1,0,0,0-1.29-.65A34.69,34.69,0,0,0,15.45,53a4.23,4.23,0,0,0,2.79,3.62,4.53,4.53,0,0,0,1.48.26,4.26,4.26,0,0,0,3-1.27A4.33,4.33,0,0,0,24,52.21ZM48.57,71a1,1,0,0,0,1.37-.47,37.29,37.29,0,0,0,3.35-10.64c2.57-1.65,6.65-5,7.61-10.23.71-3.87-.42-8.1-3.19-11.9A25.1,25.1,0,0,0,45.45,29a1.79,1.79,0,0,0-2.36,2,12.69,12.69,0,0,1-1.38,7.6c-.31.61-.64,1.23-1,2-1.09,2.65-2,6.94-1.07,10.33.83,2.92,3.19,5.44,6.83,7.26A24.83,24.83,0,0,0,51.2,60a35.1,35.1,0,0,1-3.1,9.64A1,1,0,0,0,48.57,71ZM41.65,50.37a15,15,0,0,1,1-9c.29-.69.59-1.28.89-1.84a13.51,13.51,0,0,0,1.63-8.46,23.09,23.09,0,0,1,10.9,7.86c2.43,3.35,3.44,7,2.83,10.33-.32,1.77-1.45,4.95-5.29,7.89a37.88,37.88,0,0,0-.42-8.81,8.13,8.13,0,0,0,1.35-1.64,8,8,0,0,0,1.15-4.12,1,1,0,0,0-1-1h0a1,1,0,0,0-1,1,6.24,6.24,0,0,1-1,3.27,36,36,0,0,0-2.91-7.75,1,1,0,0,0-1.82.94,33.54,33.54,0,0,1,3.32,10.14c-.17-.17-.35-.33-.54-.49a20.06,20.06,0,0,0-4.33-2.83,1,1,0,0,0-.88,1.85,17.74,17.74,0,0,1,3.88,2.53,18.13,18.13,0,0,1,2.24,2.31,33.84,33.84,0,0,1-.13,5.37c-2.55-.71-8.5-2.86-9.83-7.55ZM84,41.46a4.2,4.2,0,0,0-3-3.05,4.3,4.3,0,0,0-5.31,5.2A26.52,26.52,0,0,1,74.41,60.4a1,1,0,1,0,1.88.8,28.53,28.53,0,0,0,1.39-18.09,2.26,2.26,0,0,1,2.79-2.73A2.2,2.2,0,0,1,82,42a32.87,32.87,0,0,1-.69,18.56,32.48,32.48,0,0,1-11,15.5,32.78,32.78,0,0,1-41-.76,2.57,2.57,0,0,0-3.18,0l-3.25,2.5a.49.49,0,0,1-.81-.46l1.6-12.17a.52.52,0,0,1,.58-.43l12.17,1.58a.49.49,0,0,1,.23.9l-2.64,2a2.56,2.56,0,0,0,.07,4.1,28.57,28.57,0,0,0,16.74,5.09A28.27,28.27,0,0,0,74,65.59a1,1,0,1,0-1.72-1.12A26.15,26.15,0,0,1,50.82,76.31a26.42,26.42,0,0,1-15.53-4.72.47.47,0,0,1,0-.8l2.65-2a2.58,2.58,0,0,0-1.22-4.55L24.55,62.63a2.55,2.55,0,0,0-2.86,2.2L20.09,77a2.54,2.54,0,0,0,4.07,2.35l3.26-2.5a.51.51,0,0,1,.62,0,34.85,34.85,0,0,0,43.54.81,34.55,34.55,0,0,0,11.7-16.48A35,35,0,0,0,84,41.46Z" transform="translate(-2.38 -2.2)"></path></svg> 